<?xml version="1.0" encoding="utf-8"?>
<!-- Generator: Adobe Illustrator 16.0.0, SVG Export Plug-In . SVG Version: 6.00 Build 0)  -->
<!DOCTYPE svg PUBLIC "-//W3C//DTD SVG 1.1//EN" "http://www.w3.org/Graphics/SVG/1.1/DTD/svg11.dtd">
<svg version="1.1" id="layer" xmlns="http://www.w3.org/2000/svg" xmlns:xlink="http://www.w3.org/1999/xlink" x="0px" y="0px"
	 width="208.502px" height="83.828px" viewBox="0 0 208.502 83.828" enable-background="new 0 0 208.502 83.828"
	 xml:space="preserve">
<g id="group2">
	<polygon id="path15" fill="#FFFFFF" stroke="#000000" stroke-width="0.25" stroke-miterlimit="10" points="48.829,14.072 
		48.829,34.844 50.698,38.999 53.606,39.727 55.268,37.234 54.853,30.69 53.814,24.978 52.048,19.992 	"/>
	<polygon id="path14" fill="#FFFFFF" stroke="#000000" stroke-width="0.25" stroke-miterlimit="10" points="54.126,12.929 
		54.645,14.591 57.242,15.318 60.669,14.591 63.474,13.656 64.928,12.098 64.2,10.852 62.851,10.125 60.981,10.125 57.034,10.852 
		54.645,11.891 	"/>
	<polygon id="path13" fill="#FFFFFF" stroke="#000000" stroke-width="0.25" stroke-miterlimit="10" points="59.526,18.33 
		57.242,19.473 55.684,20.927 55.684,22.277 56.826,22.9 58.592,22.9 60.877,22.485 62.331,21.55 63.162,20.096 62.331,19.161 
		61.188,18.33 	"/>
	<polygon id="path12" fill="#FFFFFF" stroke="#000000" stroke-width="0.25" stroke-miterlimit="10" points="59.423,25.705 
		57.553,26.899 56.203,27.886 56.203,29.444 57.242,30.067 58.28,30.067 60.773,30.067 62.435,29.34 63.785,27.886 63.162,26.899 
		61.396,26.224 	"/>
	<polygon id="path11" fill="#FFFFFF" stroke="#000000" stroke-width="0.25" stroke-miterlimit="10" points="25.251,50.008 
		29.302,48.553 36.275,46.546 42.181,45.022 48.206,42.945 54.749,40.66 61.217,38.567 66.797,36.505 71.017,35.155 74.379,32.766 
		75.833,32.766 78.015,33.285 80.611,34.74 82.584,36.401 81.961,38.167 79.261,39.727 72.094,38.894 63.162,40.764 57.034,42.737 
		48.829,45.646 45.236,47.047 40.727,48.865 36.365,51.254 33.561,52.813 30.756,53.539 28.679,52.604 26.913,51.358 	"/>
	<polygon id="path10" fill="#FFFFFF" stroke="#000000" stroke-width="0.25" stroke-miterlimit="10" points="48.829,47.619 
		46.959,51.773 45.894,55.981 45.297,60.317 44.985,65.379 44.985,69.327 44.985,73.481 46.439,75.247 47.478,77.324 48.829,78.57 
		50.387,78.57 52.048,77.74 53.398,74.832 55.268,70.262 57.761,65.587 59.526,59.875 55.684,63.51 53.294,66.834 51.01,68.704 
		49.555,68.911 48.829,67.665 48.309,65.483 48.361,60.655 48.491,57.591 48.647,52.969 	"/>
	<polygon id="paht9" fill="#FFFFFF" stroke="#000000" stroke-width="0.25" stroke-miterlimit="10" points="67.394,42.193 
		65.524,44.842 63.162,47.619 59.994,50.996 57.501,53.539 52.048,58.006 57.189,56.76 61.863,54.891 66.381,51.931 70.588,48.659 
		72.146,46.322 72.146,44.452 71.211,43.152 70.393,42.777 69.069,42.154 	"/>
	<polygon id="path8" fill="#FFFFFF" stroke="#000000" stroke-width="0.25" stroke-miterlimit="10" points="61.396,56.526 
		66.381,58.006 69.419,59.097 72.146,60.032 74.483,61.356 76.098,62.63 77.287,63.537 76.82,64.706 74.462,65.428 72.146,66.264 
		76.353,67.276 79.546,67.276 83.13,67.276 85.467,66.342 86.012,64.706 85.233,63.094 83.909,61.901 80.169,59.487 77.209,58.006 
		73.704,56.916 70.51,56.137 67.628,55.669 64.59,55.669 	"/>
</g>
<g id="group1">
	<polygon id="path7" fill="#FFFFFF" stroke="#000000" stroke-width="0.25" stroke-miterlimit="10" points="106.724,33.653 
		105.633,38.95 106.724,43.001 107.919,48.195 108.594,52.816 108.594,57.023 108.594,60.606 107.711,62.32 107.114,63.774 
		105.998,63.566 105.322,62.476 104.803,60.606 103.92,59.827 102.933,60.866 102.466,62.061 101.999,64.138 101.739,66.526 
		101.843,69.123 102.114,71.449 102.777,73.018 103.505,73.695 105.79,73.332 107.451,72.242 109.581,70.476 110.567,67.775 
		111.346,64.763 112.125,61.232 112.125,57.284 111.709,53.284 111.165,49.778 110.385,45.961 109.684,43.106 108.957,40.976 
		108.126,37.757 107.503,35.316 	"/>
	<polygon id="path6" fill="#FFFFFF" stroke="#000000" stroke-width="0.25" stroke-miterlimit="10" points="110.775,29.187 
		112.749,30.433 114.93,30.433 117.111,29.81 120.019,28.46 123.343,26.175 128.536,23.267 132.325,21.012 135.703,19.424 
		137.468,18.593 138.714,18.593 138.974,19.839 137.832,22.54 137.053,25.292 136.222,29.188 135.572,32.874 135.287,39.937 
		135.235,44.715 135.391,49.155 135.962,52.712 137.156,56.192 138.714,60.19 140.584,62.634 142.765,65.181 145.466,67.468 
		147.647,69.39 150.295,70.896 152.477,71.519 153.879,71.882 155.852,72.247 158.189,71.883 159.695,71.26 160.37,70.066 
		159.955,68.092 158.683,65.514 157.67,63.566 155.489,60.84 153.074,58.581 153.229,61.385 153.516,64.148 153.962,66.403 
		153.658,67.461 152.523,67.551 149.607,66.059 145.622,63.159 142.583,60.061 140.428,56.251 139.026,52.824 138.156,49.389 
		137.988,46.067 137.988,42.067 137.936,36.82 138.299,33.13 139.234,29.228 140.636,25.014 142.298,21.917 143.648,19.061 
		144.635,16.857 144.687,15.194 144.22,14.104 143.375,13.614 141.954,13.497 140.454,14.074 139.078,14.775 136.768,15.892 
		134.943,16.85 132.314,18.035 129.548,19.203 126.403,20.53 123.531,21.852 120.473,23.215 117.747,24.461 115.137,25.474 
		113.346,26.136 112.372,27.11 111.32,28.2 	"/>
	<polygon id="path5" fill="#FFFFFF" stroke="#000000" stroke-width="0.25" stroke-miterlimit="10" points="116.105,35.766 
		118.643,34.315 122.109,33.186 124.212,31.939 126.004,31.043 127.095,30.187 128.341,29.914 129.665,30.187 130.873,30.888 
		131.223,31.861 130.912,32.972 129.704,33.653 127.562,34.16 125.809,35.017 123.784,36.029 122.693,36.964 121.836,37.977 
		120.551,38.561 118.682,38.561 117.084,37.938 116.033,37.12 115.838,36.36 	"/>
	<path id="path4" fill="#FFFFFF" stroke="#000000" stroke-width="0.25" stroke-miterlimit="10" d="M119.915,39.158l-2.233,2.129
		l-1.039,2.025l-0.805,2.909c0,0-0.598,2.233-0.545,2.389s0.208,3.375,0.208,3.375l0.571,2.077l0.468,1.351l0.727,0.467l1.142-0.312
		l0.779-1.143l0.416-1.817l-0.208-2.493l-0.26-1.922l-0.017-0.674l-0.035-1.351l0.363-2.025l0.467-2.389l0.26-1.454L119.915,39.158z
		"/>
	<polygon id="path3" fill="#FFFFFF" stroke="#000000" stroke-width="0.25" stroke-miterlimit="10" points="121.096,45.085 
		119.598,46.743 120.59,43.994 122.615,41.911 124.745,40.353 128.432,38.327 131.223,37.652 132.794,38.171 133.833,39.32 
		133.833,40.703 132.929,43.426 131.496,47.675 130.834,49.467 130.198,51.103 128.9,52.712 126.472,53.674 125.907,53.674 
		126.382,50.476 127.653,50.219 128.9,49.389 129.575,47.519 130.152,45.663 130.835,42.806 131.087,40.839 131.028,40.158 
		130.328,39.379 128.516,39.535 126.472,40.508 124.173,42.118 122.567,43.493 	"/>
	<path id="path2" fill="#FFFFFF" stroke="#000000" stroke-width="0.25" stroke-miterlimit="10" d="M123.368,51.258l-1.246,0.727
		l-1.22,0.701l-0.312,0.649l0.208,0.339l0.416,0.259c0,0,0.571,0.285,0.597,0.208c0.026-0.078,1.721,0.013,1.721,0.013l0.669-2.324
		l0.156-0.467L123.368,51.258z"/>
	<path id="path1" fill="#FFFFFF" stroke="#000000" stroke-width="0.25" stroke-miterlimit="10" d="M125.16,37.652l-0.779,1.246
		v0.727l0.39,3.636l-0.13,2.402l-0.26,1.856c0,0-0.104,1.766-0.259,2.181s-0.779,3.161-0.779,3.161l-0.805,2.175l-0.974,2.435
		l-1.597,3.031l-1.194,1.922l-1.041,1.87l-1.141,1.921l-0.312,1.974l0.208,1.61l0.571,0.935l1.402,0.26l2.259-1.039l3.038-2.025
		l2.337-1.506l3.48-1.558l2.44-1.402l1.465-0.167l0.353,0.791l-0.675,0.883l-1.935,0.987l-0.922,1.298L129.99,68.5l0.831,0.312
		h1.298l1.298-0.623l1.61-0.883l1.662-0.571l1.922-0.882l0.623-0.728v-1.142l-0.208-1.143l-0.831-0.779l-0.987-0.675l-1.87-0.416
		l-1.506,0.053l-4.628,1.227l-4.584,1.624l-1.09-0.358l0.596-2.647l0.514-1.819l0.682-2.59l0.331-2.045l0.654-3.439l0.164-3.104
		l-0.065-2.947l0.052-2.493l-0.104-1.558l-0.156-2.025l-0.312-0.882L125.16,37.652z"/>
</g>
<g>
</g>
<g>
</g>
<g>
</g>
<g>
</g>
<g>
</g>
<g>
</g>
</svg>
